<mxfile host="app.diagrams.net" agent="Mozilla/5.0 (Macintosh; Intel Mac OS X 10_15_7) AppleWebKit/537.36 (KHTML, like Gecko) Chrome/120.0.0.0 Safari/537.36" version="24.7.7">
  <diagram name="第 1 页" id="2kuI5vqeoujSwtPeEiwz">
    <mxGraphModel dx="954" dy="527" grid="0" gridSize="10" guides="1" tooltips="1" connect="1" arrows="1" fold="1" page="1" pageScale="1" pageWidth="827" pageHeight="1169" background="#000000" math="0" shadow="0">
      <root>
        <mxCell id="0" />
        <mxCell id="1" parent="0" />
        <mxCell id="egfz6zBa7lYmq5XDyndJ-3" value="" style="html=1;shadow=0;dashed=0;align=center;verticalAlign=middle;shape=mxgraph.arrows2.arrow;dy=0;dx=30;notch=30;direction=west;rotation=1;fillColor=#FFFFFF;strokeColor=#000000;" parent="1" vertex="1">
          <mxGeometry x="580" y="153.54" width="41.12" height="108.89" as="geometry" />
        </mxCell>
        <mxCell id="egfz6zBa7lYmq5XDyndJ-17" value="" style="verticalLabelPosition=bottom;verticalAlign=top;html=1;shape=hexagon;perimeter=hexagonPerimeter2;arcSize=6;size=0.27;fillColor=#FF0000;" parent="1" vertex="1">
          <mxGeometry x="605" y="154" width="130" height="111.43" as="geometry" />
        </mxCell>
        <mxCell id="egfz6zBa7lYmq5XDyndJ-18" value="&lt;span style=&quot;font-size: 18px;&quot;&gt;锁屏杂志&lt;/span&gt;" style="text;html=1;align=center;verticalAlign=middle;whiteSpace=wrap;rounded=0;" parent="1" vertex="1">
          <mxGeometry x="636" y="192.98000000000002" width="77" height="30" as="geometry" />
        </mxCell>
        <mxCell id="nMclyF_xI6lpTPqhvQNZ-13" style="edgeStyle=orthogonalEdgeStyle;rounded=0;orthogonalLoop=1;jettySize=auto;html=1;exitX=1;exitY=0.5;exitDx=0;exitDy=0;strokeColor=#FFFFFF;dashed=1;" parent="1" source="nMclyF_xI6lpTPqhvQNZ-4" target="nMclyF_xI6lpTPqhvQNZ-10" edge="1">
          <mxGeometry relative="1" as="geometry" />
        </mxCell>
        <mxCell id="nMclyF_xI6lpTPqhvQNZ-4" value="&lt;font style=&quot;font-size: 14px;&quot; color=&quot;#ffffff&quot;&gt;Jins&lt;/font&gt;" style="rounded=1;whiteSpace=wrap;html=1;fillColor=#A680B8;" parent="1" vertex="1">
          <mxGeometry x="200" y="352" width="120" height="60" as="geometry" />
        </mxCell>
        <mxCell id="nMclyF_xI6lpTPqhvQNZ-8" style="edgeStyle=orthogonalEdgeStyle;rounded=0;orthogonalLoop=1;jettySize=auto;html=1;exitX=1;exitY=0.5;exitDx=0;exitDy=0;exitPerimeter=0;strokeColor=#FFFFFF;dashed=1;" parent="1" source="nMclyF_xI6lpTPqhvQNZ-5" edge="1">
          <mxGeometry relative="1" as="geometry">
            <mxPoint x="196.08695652173924" y="380.7391304347826" as="targetPoint" />
          </mxGeometry>
        </mxCell>
        <mxCell id="nMclyF_xI6lpTPqhvQNZ-5" value="&lt;font color=&quot;#ffffff&quot;&gt;MySQL&lt;/font&gt;" style="shape=cylinder3;whiteSpace=wrap;html=1;boundedLbl=1;backgroundOutline=1;size=15;fillColor=#2C649F;strokeColor=#FFFFFF;" parent="1" vertex="1">
          <mxGeometry x="74" y="340.72" width="60" height="80" as="geometry" />
        </mxCell>
        <mxCell id="nMclyF_xI6lpTPqhvQNZ-9" value="&lt;font color=&quot;#ffffff&quot; style=&quot;font-size: 14px;&quot;&gt;MQ&lt;/font&gt;" style="shape=cylinder3;whiteSpace=wrap;html=1;boundedLbl=1;backgroundOutline=1;size=15;direction=south;fillColor=#9E4846;strokeColor=#FFFFFF;" parent="1" vertex="1">
          <mxGeometry x="375" y="256.43" width="103" height="54.57" as="geometry" />
        </mxCell>
        <mxCell id="nMclyF_xI6lpTPqhvQNZ-10" value="&lt;font color=&quot;#ffffff&quot; style=&quot;font-size: 14px;&quot;&gt;MQ&lt;/font&gt;" style="shape=cylinder3;whiteSpace=wrap;html=1;boundedLbl=1;backgroundOutline=1;size=15;direction=south;fillColor=#9E4846;strokeColor=#FFFFFF;" parent="1" vertex="1">
          <mxGeometry x="372" y="354.71000000000004" width="103" height="54.57" as="geometry" />
        </mxCell>
        <mxCell id="nMclyF_xI6lpTPqhvQNZ-11" value="&lt;font color=&quot;#ffffff&quot; style=&quot;font-size: 14px;&quot;&gt;MQ&lt;/font&gt;" style="shape=cylinder3;whiteSpace=wrap;html=1;boundedLbl=1;backgroundOutline=1;size=15;direction=south;fillColor=#9E4846;strokeColor=#FFFFFF;" parent="1" vertex="1">
          <mxGeometry x="372" y="461.84000000000003" width="103" height="54.57" as="geometry" />
        </mxCell>
        <mxCell id="nMclyF_xI6lpTPqhvQNZ-12" style="edgeStyle=orthogonalEdgeStyle;rounded=0;orthogonalLoop=1;jettySize=auto;html=1;exitX=1;exitY=0.5;exitDx=0;exitDy=0;entryX=0.5;entryY=1;entryDx=0;entryDy=0;entryPerimeter=0;curved=1;strokeColor=#FFFFFF;dashed=1;" parent="1" source="nMclyF_xI6lpTPqhvQNZ-4" target="nMclyF_xI6lpTPqhvQNZ-9" edge="1">
          <mxGeometry relative="1" as="geometry" />
        </mxCell>
        <mxCell id="nMclyF_xI6lpTPqhvQNZ-14" style="edgeStyle=orthogonalEdgeStyle;rounded=0;orthogonalLoop=1;jettySize=auto;html=1;exitX=1;exitY=0.5;exitDx=0;exitDy=0;entryX=0.5;entryY=1;entryDx=0;entryDy=0;entryPerimeter=0;curved=1;strokeColor=#FFFFFF;dashed=1;" parent="1" source="nMclyF_xI6lpTPqhvQNZ-4" target="nMclyF_xI6lpTPqhvQNZ-11" edge="1">
          <mxGeometry relative="1" as="geometry" />
        </mxCell>
        <mxCell id="nMclyF_xI6lpTPqhvQNZ-15" value="" style="html=1;shadow=0;dashed=0;align=center;verticalAlign=middle;shape=mxgraph.arrows2.arrow;dy=0;dx=30;notch=30;direction=west;rotation=1;fillColor=#FFFFFF;strokeColor=#000000;" parent="1" vertex="1">
          <mxGeometry x="577" y="324.83" width="41.12" height="108.89" as="geometry" />
        </mxCell>
        <mxCell id="nMclyF_xI6lpTPqhvQNZ-16" value="" style="verticalLabelPosition=bottom;verticalAlign=top;html=1;shape=hexagon;perimeter=hexagonPerimeter2;arcSize=6;size=0.27;fillColor=#FFE599;" parent="1" vertex="1">
          <mxGeometry x="602" y="325.28999999999996" width="130" height="111.43" as="geometry" />
        </mxCell>
        <mxCell id="nMclyF_xI6lpTPqhvQNZ-17" value="&lt;span style=&quot;font-size: 18px;&quot;&gt;小游戏&lt;/span&gt;" style="text;html=1;align=center;verticalAlign=middle;whiteSpace=wrap;rounded=0;" parent="1" vertex="1">
          <mxGeometry x="633" y="364.27" width="77" height="30" as="geometry" />
        </mxCell>
        <mxCell id="nMclyF_xI6lpTPqhvQNZ-18" value="" style="html=1;shadow=0;dashed=0;align=center;verticalAlign=middle;shape=mxgraph.arrows2.arrow;dy=0;dx=30;notch=30;direction=west;rotation=1;fillColor=#FFFFFF;strokeColor=#000000;" parent="1" vertex="1">
          <mxGeometry x="574" y="481" width="41.12" height="108.89" as="geometry" />
        </mxCell>
        <mxCell id="nMclyF_xI6lpTPqhvQNZ-19" value="" style="verticalLabelPosition=bottom;verticalAlign=top;html=1;shape=hexagon;perimeter=hexagonPerimeter2;arcSize=6;size=0.27;fillColor=#00CC00;" parent="1" vertex="1">
          <mxGeometry x="599" y="481.4599999999999" width="130" height="111.43" as="geometry" />
        </mxCell>
        <mxCell id="nMclyF_xI6lpTPqhvQNZ-20" value="&lt;span style=&quot;font-size: 18px;&quot;&gt;浏览器&lt;/span&gt;" style="text;html=1;align=center;verticalAlign=middle;whiteSpace=wrap;rounded=0;" parent="1" vertex="1">
          <mxGeometry x="630" y="520.4399999999999" width="77" height="30" as="geometry" />
        </mxCell>
        <mxCell id="nMclyF_xI6lpTPqhvQNZ-21" style="edgeStyle=orthogonalEdgeStyle;rounded=0;orthogonalLoop=1;jettySize=auto;html=1;exitX=0.5;exitY=0;exitDx=0;exitDy=0;exitPerimeter=0;entryX=1;entryY=0.5;entryDx=0;entryDy=0;entryPerimeter=0;curved=1;startArrow=classic;startFill=1;dashed=1;strokeColor=#FFFFFF;" parent="1" source="nMclyF_xI6lpTPqhvQNZ-9" target="egfz6zBa7lYmq5XDyndJ-3" edge="1">
          <mxGeometry relative="1" as="geometry" />
        </mxCell>
        <mxCell id="nMclyF_xI6lpTPqhvQNZ-24" value="&lt;font color=&quot;#000000&quot;&gt;Sub&lt;/font&gt;" style="edgeLabel;html=1;align=center;verticalAlign=middle;resizable=0;points=[];fontColor=#FFFFFF;" parent="nMclyF_xI6lpTPqhvQNZ-21" vertex="1" connectable="0">
          <mxGeometry x="-0.1077" y="-1" relative="1" as="geometry">
            <mxPoint as="offset" />
          </mxGeometry>
        </mxCell>
        <mxCell id="nMclyF_xI6lpTPqhvQNZ-22" style="edgeStyle=orthogonalEdgeStyle;rounded=0;orthogonalLoop=1;jettySize=auto;html=1;exitX=0.5;exitY=0;exitDx=0;exitDy=0;exitPerimeter=0;entryX=1;entryY=0.5;entryDx=0;entryDy=0;entryPerimeter=0;curved=1;startArrow=classic;startFill=1;dashed=1;strokeColor=#FFFFFF;" parent="1" source="nMclyF_xI6lpTPqhvQNZ-10" target="nMclyF_xI6lpTPqhvQNZ-15" edge="1">
          <mxGeometry relative="1" as="geometry" />
        </mxCell>
        <mxCell id="nMclyF_xI6lpTPqhvQNZ-25" value="&lt;font color=&quot;#000000&quot;&gt;Sub&lt;/font&gt;" style="edgeLabel;html=1;align=center;verticalAlign=middle;resizable=0;points=[];fontColor=#FFFFFF;" parent="nMclyF_xI6lpTPqhvQNZ-22" vertex="1" connectable="0">
          <mxGeometry x="0.0207" y="3" relative="1" as="geometry">
            <mxPoint x="-3" y="3" as="offset" />
          </mxGeometry>
        </mxCell>
        <mxCell id="nMclyF_xI6lpTPqhvQNZ-23" style="edgeStyle=orthogonalEdgeStyle;rounded=0;orthogonalLoop=1;jettySize=auto;html=1;exitX=0.5;exitY=0;exitDx=0;exitDy=0;exitPerimeter=0;entryX=1;entryY=0.5;entryDx=0;entryDy=0;entryPerimeter=0;curved=1;startArrow=classic;startFill=1;dashed=1;strokeColor=#FFFFFF;" parent="1" source="nMclyF_xI6lpTPqhvQNZ-11" target="nMclyF_xI6lpTPqhvQNZ-18" edge="1">
          <mxGeometry relative="1" as="geometry" />
        </mxCell>
        <mxCell id="nMclyF_xI6lpTPqhvQNZ-26" value="&lt;font color=&quot;#000000&quot;&gt;Sub&lt;/font&gt;" style="edgeLabel;html=1;align=center;verticalAlign=middle;resizable=0;points=[];fontColor=#FFFFFF;" parent="nMclyF_xI6lpTPqhvQNZ-23" vertex="1" connectable="0">
          <mxGeometry x="-0.1699" y="-5" relative="1" as="geometry">
            <mxPoint as="offset" />
          </mxGeometry>
        </mxCell>
      </root>
    </mxGraphModel>
  </diagram>
</mxfile>
